Coordinates
nRows=15
nColumns=24

# SIMM Motion File Header:
name Coordinates
datacolumns 24
datarows 15
otherdata 1
range 1.62500000000000000000 1.63900000000000000000

Units are S.I. units (second, meters, Newtons, ...)
Angles are in degrees.

endheader
time	pelvis_tx	pelvis_ty	pelvis_tz	pelvis_tilt	pelvis_list	pelvis_rotation	hip_flexion_r	hip_adduction_r	hip_rotation_r	knee_angle_r	ankle_angle_r	subtalar_angle_r	mtp_angle_r	hip_flexion_l	hip_adduction_l	hip_rotation_l	knee_angle_l	ankle_angle_l	subtalar_angle_l	mtp_angle_l	lumbar_extension	lumbar_bending	lumbar_rotation
      1.62500000000000000000	      0.61380942814484118000	      1.05077367225474920000	      0.00045627566595385214	      6.08617917828454140000	     -1.82623829727522930000	      0.36256819029999154000	     18.92880566270673300000	     -3.51320040022327000000	     -7.86128072944463430000	    -57.74751555954083700000	      2.44542465066080130000	     -0.00998999474486394340	      0.01093715097220059400	     -4.89435647666514130000	      1.31577847343815860000	     -1.08953443185511540000	     -9.25077082028075810000	      6.88744245095830540000	      0.11175249570609420000	      0.06677869678180024800	    -15.85708249800494100000	     -0.25283262799960204000	     -6.55676163394981160000
      1.62600000000000010000	      0.61369087052348903000	      1.05073988302797550000	      0.00039536254027013653	      6.07598827334020800000	     -1.82469319416543430000	      0.37071305403318722000	     18.99935134623806500000	     -3.51424150993739290000	     -7.90023288743292800000	    -57.50704310566340600000	      2.44005676855124910000	     -0.00994942616134523830	      0.01090753521015797000	     -4.96898569633950870000	      1.31960441433545930000	     -1.09169195273633290000	     -9.20495103653109940000	      6.91691211696674820000	      0.11202937494610586000	      0.06614803623578763300	    -15.85569688290444500000	     -0.24577391138762036000	     -6.56291247221706350000
      1.62700000000000000000	      0.61357234300869479000	      1.05070420264406540000	      0.00033521674696368827	      6.06569410074524030000	     -1.82284833716800730000	      0.37841859367927583000	     19.06895479062594800000	     -3.51561316934650710000	     -7.93963414521361080000	    -57.26406280902551100000	      2.43463982973582600000	     -0.00990895508752656640	      0.01087737595424884800	     -5.04346608701112940000	      1.32374411759967230000	     -1.09433267030154970000	     -9.15923017904862390000	      6.94634751013445580000	      0.11229595719673197000	      0.06551854961855230200	    -15.85422777732361700000	     -0.23909238744248595000	     -6.56863613205887820000
      1.62800000000000010000	      0.61345386615076880000	      1.05066664091905330000	      0.00027584116094579410	      6.05529925840236240000	     -1.82070344927296460000	      0.38568987785774472000	     19.13760514768880600000	     -3.51730264480275690000	     -7.97947346258378150000	    -57.01856987233125600000	      2.42918486670833690000	     -0.00986857433924743720	      0.01084668093222781300	     -5.11780563151356470000	      1.32819846754992830000	     -1.09744925393009440000	     -9.11360101210267890000	      6.97575665074970710000	      0.11255173357156563000	      0.06488960630969457800	    -15.85267589608214500000	     -0.23278850274587803000	     -6.57394083469595540000
      1.62900000000000000000	      0.61333546064982158000	      1.05062720782596840000	      0.00021723845813185200	      6.04480642366994300000	     -1.81825819215907720000	      0.39253217739009971000	     19.20529168427644300000	     -3.51929723396725660000	     -8.01973921757506680000	    -56.77055970498961600000	      2.42370209125710860000	     -0.00982827404001995410	      0.01081545814876434300	     -5.19201239953062640000	      1.33296834118079070000	     -1.10103406696358320000	     -9.06805634454109640000	      7.00514942101267120000	      0.11279585497986419000	      0.06425760598617565000	    -15.85104200630108200000	     -0.22686273550857636000	     -6.57883501325249400000
      1.63000000000000010000	      0.61321714722418297000	      1.05058591299571710000	      0.00015941114067108761	      6.03421834678432310000	     -1.81551217738355810000	      0.39895096302638655000	     19.27200377555200100000	     -3.52158427423794770000	     -8.06041920223487910000	    -56.52002794428137400000	      2.41820089481657700000	     -0.00978804820576082390	      0.01078371564829043800	     -5.26609456387375110000	      1.33805459411466620000	     -1.10507927963791760000	     -9.02258903922929360000	      7.03453411739620640000	      0.11302827980825605000	      0.06362230052342843200	    -15.84932693637890600000	     -0.22131559036372619000	     -6.58332730156268390000
      1.63100000000000000000	      0.61309894658549713000	      1.05054276562155050000	      0.00010236153069846447	      6.02353784792870250000	     -1.81246496462643260000	      0.40495190067546583000	     19.33773091332440000000	     -3.52415116087245470000	     -8.10150062445356940000	    -56.26697047878967300000	      2.41268986319152830000	     -0.00974789298170996440	      0.01075146109810486300	     -5.34006039304953180000	      1.34345807064709840000	     -1.10957687201379020000	     -8.97719203007758540000	      7.06391761603051100000	      0.11324946841264026000	      0.06298643988524578500	    -15.84753157555169200000	     -0.21614760007485187000	     -6.58742652730169450000
      1.63200000000000010000	      0.61298087953173186000	      1.05049777475930360000	      0.00004609174438653522	      6.01276781828030060000	     -1.80911605299534890000	      0.41054084381822920000	     19.40246272891666000000	     -3.52698536663601250000	     -8.14297011217986540000	    -56.01138346968463100000	      2.40717679700932010000	     -0.00970780154191077350	      0.01071870184355642000	     -5.41391822432918970000	      1.34917961824525870000	     -1.11451860330542060000	     -8.93185833539963880000	      7.09330692136393020000	      0.11345962496487468000	      0.06235287361456026000	    -15.84565686367857000000	     -0.21135932913161359000	     -6.59114170937943110000
      1.63300000000000000000	      0.61286296705638466000	      1.05045094962934190000	     -0.00000939631128989781	      6.00191122282628520000	     -1.80546487958762070000	      0.41572382407561759000	     19.46618901492101700000	     -3.53007445001906770000	     -8.18481371551149730000	    -55.75326336855960800000	      2.40166872949445810000	     -0.00966776722793366400	      0.01068544567047520700	     -5.48767643997851360000	      1.35522007645614950000	     -1.11989592935689400000	     -8.88658104794436280000	      7.12271084045005230000	      0.11365880923728088000	      0.06172151734826956900	    -15.84370378122952700000	     -0.20695137182327200000	     -6.59448205251486020000
      1.63400000000000010000	      0.61274523032712125000	      1.05040229952768780000	     -0.00006410093307777429	      5.99097109920163720000	     -1.80151082032566290000	      0.42050704396217797000	     19.52889973158496100000	     -3.53340606784178580000	     -8.22701690863029530000	    -55.49260694125597100000	      2.39617194497210790000	     -0.00962778564222063070	      0.01065170115286732600	     -5.56134346335865890000	      1.36158027417492590000	     -1.12569999177307810000	     -8.84135333982288960000	      7.15214017207560550000	      0.11384709320729325000	      0.06108900244945453900	    -15.84167335023725300000	     -0.20292435223908187000	     -6.59745693610191890000
      1.63500000000000000000	      0.61262769052079935000	      1.05035183333376090000	     -0.00011802062127237435	      5.97995054885747470000	     -1.79725319353573790000	      0.42489687404862858000	     19.59058500069624400000	     -3.53696799372098750000	     -8.26956459491517930000	    -55.22941129980077300000	      2.39069199980137270000	     -0.00958785272328776220	      0.01061747692259541900	     -5.63492777253129610000	      1.36826104141108630000	     -1.13192178613588550000	     -8.79616849576262720000	      7.18160411276857500000	      0.11402478791885835000	      0.06045515302261492800	    -15.83956664317086500000	     -0.19927892394840277000	     -6.60007589865923360000
      1.63600000000000010000	      0.61251036878506371000	      1.05029955942837680000	     -0.00017115408668770811	      5.96885273540172980000	     -1.79269125647443790000	      0.42889984657761876000	     19.65123511116007300000	     -3.54074813633087220000	     -8.31244110975929470000	    -54.96367392823349700000	      2.38523374286259850000	     -0.00954796285210892520	      0.01058278120840382800	     -5.70843789596903050000	      1.37526321782596340000	     -1.13855217435436070000	     -8.75101993019292830000	      7.21111034024643870000	      0.11419226864717040000	      0.05982279139551910400	    -15.83738478518841600000	     -0.19601577338005316000	     -6.60234862741115780000
      1.63700000000000000000	      0.61239328634002665000	      1.05024548600088340000	     -0.00022350026800094239	      5.95768088709887600000	     -1.78782419888157420000	      0.43252264669359486000	     19.71084054089434200000	     -3.54473455442460090000	     -8.35563022349841060000	    -54.69539270238325200000	      2.37980133529147950000	     -0.00950810722670921390	      0.01054762210496916000	     -5.78188238717469890000	      1.38258765544605900000	     -1.14558183436010210000	     -8.70590119287781940000	      7.24066659726730940000	      0.11434965263774463000	      0.05919482486829337500	    -15.83512894477100400000	     -0.19313562189297201000	     -6.60428495418967550000
      1.63800000000000010000	      0.61227646460113516000	      1.05018962134813790000	     -0.00027505832772318578	      5.94643829977734570000	     -1.78265114613668900000	      0.43577210249393400000	     19.76939197953478500000	     -3.54891545834796980000	     -8.39911514307448390000	    -54.42456590582359900000	      2.37439826677676090000	     -0.00946828123716225540	      0.01051200856085755500	     -5.85526980197088150000	      1.39023519497314150000	     -1.15300115484860030000	     -8.66080593996101020000	      7.27028245218762410000	      0.11449725970298349000	      0.05857108604354834000	    -15.83280032240331700000	     -0.19063921956413063000	     -6.60589484891519070000
      1.63900000000000000000	      0.61215992514442308000	      1.05013197379271750000	     -0.00032582765120504778	      5.93512833541998400000	     -1.77717116052270720000	      0.43865517789051339000	     19.82688033304813800000	     -3.55327922121716580000	     -8.44287851409829670000	    -54.15119225409861800000	      2.36902737389165590000	     -0.00942848701714176990	      0.01047595074333412500	     -5.92860869747040460000	      1.39820666138588350000	     -1.16080022459779640000	     -8.61572793575204090000	      7.29996948895023130000	      0.11463578976315741000	      0.05794798033217620600	    -15.83040015284084100000	     -0.18852734424956591000	     -6.60718840707250180000
